<svg width="143" height="90" viewBox="0 0 143 90" fill="none" xmlns="http://www.w3.org/2000/svg">
<g clip-path="url(#clip0_1066_66471)">
<path d="M55.4993 56.8663C55.7332 58.1996 56.2712 59.2288 57.1133 59.9539C57.9787 60.679 59.1366 61.0416 60.5868 61.0416C62.5283 61.0416 63.9552 60.2814 64.8674 58.761C65.8031 57.2405 66.2475 54.6792 66.2007 51.077C65.7095 52.1296 64.8908 52.96 63.7447 53.5681C62.5985 54.1529 61.3237 54.4453 59.9202 54.4453C58.353 54.4453 56.9495 54.1295 55.7098 53.4979C54.4935 52.843 53.5344 51.8957 52.8327 50.6559C52.1309 49.4162 51.7801 47.9192 51.7801 46.1648C51.7801 43.662 52.5052 41.6503 53.9555 40.1299C55.4057 38.5861 57.4641 37.8142 60.1307 37.8142C63.4055 37.8142 65.6978 38.8785 67.0077 41.0071C68.341 43.1357 69.0077 46.3052 69.0077 50.5156C69.0077 53.4629 68.7387 55.8955 68.2007 57.8136C67.6861 59.7317 66.7972 61.1936 65.5341 62.1995C64.2943 63.2053 62.5868 63.7082 60.4114 63.7082C58.0255 63.7082 56.1659 63.0649 54.8326 61.7784C53.4993 60.4919 52.7391 58.8545 52.552 56.8663H55.4993ZM60.4465 51.7436C62.0137 51.7436 63.3002 51.2641 64.306 50.3051C65.3119 49.3226 65.8148 48.001 65.8148 46.3403C65.8148 44.5859 65.3236 43.1708 64.3411 42.0948C63.3587 41.0188 61.9786 40.4808 60.2009 40.4808C58.5635 40.4808 57.2536 40.9954 56.2712 42.0246C55.3121 43.0538 54.8326 44.4105 54.8326 46.0946C54.8326 47.8022 55.3121 49.1706 56.2712 50.1998C57.2302 51.229 58.622 51.7436 60.4465 51.7436ZM73.4946 50.7261C73.4946 46.7028 74.1496 43.5684 75.4595 41.3229C76.7694 39.0539 79.0617 37.9194 82.3365 37.9194C85.5879 37.9194 87.8685 39.0539 89.1784 41.3229C90.4883 43.5684 91.1433 46.7028 91.1433 50.7261C91.1433 54.8195 90.4883 58.0007 89.1784 60.2697C87.8685 62.5386 85.5879 63.6731 82.3365 63.6731C79.0617 63.6731 76.7694 62.5386 75.4595 60.2697C74.1496 58.0007 73.4946 54.8195 73.4946 50.7261ZM87.9855 50.7261C87.9855 48.6911 87.8451 46.9718 87.5644 45.5683C87.3071 44.1415 86.7574 42.9953 85.9153 42.1298C85.0967 41.2644 83.9037 40.8316 82.3365 40.8316C80.7459 40.8316 79.5296 41.2644 78.6875 42.1298C77.8688 42.9953 77.3191 44.1415 77.0384 45.5683C76.7811 46.9718 76.6525 48.6911 76.6525 50.7261C76.6525 52.8313 76.7811 54.5973 77.0384 56.0242C77.3191 57.4511 77.8688 58.5972 78.6875 59.4627C79.5296 60.3282 80.7459 60.7609 82.3365 60.7609C83.9037 60.7609 85.0967 60.3282 85.9153 59.4627C86.7574 58.5972 87.3071 57.4511 87.5644 56.0242C87.8451 54.5973 87.9855 52.8313 87.9855 50.7261Z" fill="black"/>
<path d="M50.439 79.6587V82.0879H53.0871V82.8698H50.439V85.3719H53.3998V86.1538H49.4903V78.8768H53.3998V79.6587H50.439ZM57.8171 86.1538L56.4618 84.027L55.1586 86.1538H54.1681L56.0135 83.3181L54.1681 80.4406H55.242L56.5973 82.557L57.8901 80.4406H58.8805L57.0456 83.2659L58.8909 86.1538H57.8171ZM59.4697 83.2868C59.4697 82.696 59.5878 82.1817 59.8241 81.7438C60.0605 81.299 60.3871 80.955 60.8041 80.7117C61.2281 80.4684 61.7112 80.3468 62.2533 80.3468C62.9553 80.3468 63.5322 80.5171 63.9839 80.8576C64.4426 81.1982 64.745 81.6708 64.8909 82.2755H63.8692C63.7719 81.928 63.5808 81.6535 63.2958 81.4519C63.0178 81.2503 62.6703 81.1496 62.2533 81.1496C61.7112 81.1496 61.2733 81.3372 60.9397 81.7125C60.6061 82.0809 60.4393 82.6057 60.4393 83.2868C60.4393 83.9749 60.6061 84.5066 60.9397 84.8819C61.2733 85.2572 61.7112 85.4449 62.2533 85.4449C62.6703 85.4449 63.0178 85.3476 63.2958 85.153C63.5739 84.9583 63.765 84.6803 63.8692 84.3189H64.8909C64.738 84.9027 64.4322 85.3719 63.9735 85.7264C63.5148 86.0739 62.9414 86.2476 62.2533 86.2476C61.7112 86.2476 61.2281 86.126 60.8041 85.8827C60.3871 85.6395 60.0605 85.2954 59.8241 84.8506C59.5878 84.4058 59.4697 83.8845 59.4697 83.2868ZM71.3696 83.0783C71.3696 83.259 71.3592 83.4501 71.3383 83.6517H66.7719C66.8067 84.2147 66.9978 84.656 67.3453 84.9757C67.6998 85.2885 68.1273 85.4449 68.6277 85.4449C69.0377 85.4449 69.3783 85.351 69.6494 85.1634C69.9274 84.9688 70.122 84.7116 70.2332 84.3919H71.2549C71.102 84.941 70.7962 85.3893 70.3375 85.7368C69.8787 86.0774 69.3088 86.2476 68.6277 86.2476C68.0855 86.2476 67.599 86.126 67.1681 85.8827C66.7441 85.6395 66.4105 85.2954 66.1673 84.8506C65.924 84.3988 65.8024 83.8776 65.8024 83.2868C65.8024 82.696 65.9205 82.1782 66.1568 81.7334C66.3931 81.2886 66.7233 80.948 67.1473 80.7117C67.5782 80.4684 68.0716 80.3468 68.6277 80.3468C69.1698 80.3468 69.6494 80.465 70.0664 80.7013C70.4834 80.9376 70.8031 81.2642 71.0255 81.6813C71.2549 82.0913 71.3696 82.557 71.3696 83.0783ZM70.3896 82.8802C70.3896 82.5188 70.3097 82.2095 70.1498 81.9523C69.9899 81.6882 69.771 81.4901 69.493 81.3581C69.2219 81.2191 68.9196 81.1496 68.586 81.1496C68.1064 81.1496 67.6963 81.3025 67.3558 81.6083C67.0221 81.9141 66.831 82.3381 66.7824 82.8802H70.3896ZM73.5706 78.4389V86.1538H72.6219V78.4389H73.5706ZM76.1362 78.4389V86.1538H75.1875V78.4389H76.1362ZM82.9659 83.0783C82.9659 83.259 82.9555 83.4501 82.9347 83.6517H78.3683C78.403 84.2147 78.5942 84.656 78.9417 84.9757C79.2962 85.2885 79.7236 85.4449 80.224 85.4449C80.6341 85.4449 80.9747 85.351 81.2457 85.1634C81.5237 84.9688 81.7183 84.7116 81.8296 84.3919H82.8513C82.6983 84.941 82.3925 85.3893 81.9338 85.7368C81.4751 86.0774 80.9052 86.2476 80.224 86.2476C79.6819 86.2476 79.1954 86.126 78.7645 85.8827C78.3405 85.6395 78.0069 85.2954 77.7636 84.8506C77.5203 84.3988 77.3987 83.8776 77.3987 83.2868C77.3987 82.696 77.5169 82.1782 77.7532 81.7334C77.9895 81.2886 78.3196 80.948 78.7436 80.7117C79.1745 80.4684 79.668 80.3468 80.224 80.3468C80.7662 80.3468 81.2457 80.465 81.6627 80.7013C82.0798 80.9376 82.3995 81.2642 82.6219 81.6813C82.8513 82.0913 82.9659 82.557 82.9659 83.0783ZM81.9859 82.8802C81.9859 82.5188 81.906 82.2095 81.7461 81.9523C81.5863 81.6882 81.3674 81.4901 81.0893 81.3581C80.8183 81.2191 80.5159 81.1496 80.1823 81.1496C79.7027 81.1496 79.2927 81.3025 78.9521 81.6083C78.6185 81.9141 78.4274 82.3381 78.3787 82.8802H81.9859ZM87.0018 80.3364C87.6969 80.3364 88.2598 80.5484 88.6908 80.9723C89.1217 81.3893 89.3371 81.994 89.3371 82.7864V86.1538H88.3988V82.9219C88.3988 82.352 88.2564 81.9176 87.9714 81.6187C87.6864 81.3129 87.2972 81.16 86.8037 81.16C86.3033 81.16 85.9037 81.3164 85.6048 81.6291C85.3129 81.9419 85.1669 82.3971 85.1669 82.9949V86.1538H84.2182V80.4406H85.1669V81.2538C85.3546 80.9619 85.6083 80.736 85.928 80.5762C86.2547 80.4163 86.6126 80.3364 87.0018 80.3364ZM92.0441 81.2225V84.59C92.0441 84.868 92.1032 85.0661 92.2213 85.1842C92.3395 85.2954 92.5445 85.351 92.8364 85.351H93.535V86.1538H92.6801C92.1518 86.1538 91.7557 86.0322 91.4916 85.7889C91.2274 85.5457 91.0954 85.146 91.0954 84.59V81.2225H90.3552V80.4406H91.0954V79.0019H92.0441V80.4406H93.535V81.2225H92.0441Z" fill="black"/>
<path d="M131.332 82.9203V82.3903H132.532V87.0064H131.945V82.9203H131.332ZM133.53 84.6505C133.53 83.9184 133.65 83.348 133.888 82.9394C134.126 82.5265 134.543 82.3201 135.139 82.3201C135.731 82.3201 136.146 82.5265 136.384 82.9394C136.623 83.348 136.742 83.9184 136.742 84.6505C136.742 85.3954 136.623 85.9742 136.384 86.3871C136.146 86.8 135.731 87.0064 135.139 87.0064C134.543 87.0064 134.126 86.8 133.888 86.3871C133.65 85.9742 133.53 85.3954 133.53 84.6505ZM136.167 84.6505C136.167 84.2802 136.142 83.9673 136.091 83.7119C136.044 83.4523 135.944 83.2437 135.791 83.0863C135.642 82.9288 135.424 82.85 135.139 82.85C134.85 82.85 134.629 82.9288 134.475 83.0863C134.326 83.2437 134.226 83.4523 134.175 83.7119C134.128 83.9673 134.105 84.2802 134.105 84.6505C134.105 85.0336 134.128 85.3549 134.175 85.6146C134.226 85.8742 134.326 86.0828 134.475 86.2403C134.629 86.3977 134.85 86.4765 135.139 86.4765C135.424 86.4765 135.642 86.3977 135.791 86.2403C135.944 86.0828 136.044 85.8742 136.091 85.6146C136.142 85.3549 136.167 85.0336 136.167 84.6505ZM137.539 84.6505C137.539 83.9184 137.659 83.348 137.897 82.9394C138.135 82.5265 138.553 82.3201 139.148 82.3201C139.74 82.3201 140.155 82.5265 140.393 82.9394C140.632 83.348 140.751 83.9184 140.751 84.6505C140.751 85.3954 140.632 85.9742 140.393 86.3871C140.155 86.8 139.74 87.0064 139.148 87.0064C138.553 87.0064 138.135 86.8 137.897 86.3871C137.659 85.9742 137.539 85.3954 137.539 84.6505ZM140.176 84.6505C140.176 84.2802 140.151 83.9673 140.1 83.7119C140.053 83.4523 139.953 83.2437 139.8 83.0863C139.651 82.9288 139.434 82.85 139.148 82.85C138.859 82.85 138.638 82.9288 138.484 83.0863C138.335 83.2437 138.235 83.4523 138.184 83.7119C138.138 83.9673 138.114 84.2802 138.114 84.6505C138.114 85.0336 138.138 85.3549 138.184 85.6146C138.235 85.8742 138.335 86.0828 138.484 86.2403C138.638 86.3977 138.859 86.4765 139.148 86.4765C139.434 86.4765 139.651 86.3977 139.8 86.2403C139.953 86.0828 140.053 85.8742 140.1 85.6146C140.151 85.3549 140.176 85.0336 140.176 84.6505Z" fill="black"/>
<path d="M56.2588 13.8119C56.0196 12.6293 54.8656 11.8611 53.6912 12.1378C39.1228 15.571 26.0537 23.6797 16.501 35.2541C6.9483 46.8285 1.46538 61.1983 0.857446 76.1534C0.808438 77.359 1.78153 78.3463 2.98805 78.3569V78.3569C4.19458 78.3675 5.17741 77.3974 5.22902 76.192C5.82647 62.2389 10.9559 48.8371 19.8709 38.0353C28.7858 27.2336 40.9716 19.6556 54.5582 16.4228C55.732 16.1435 56.4981 14.9945 56.2588 13.8119V13.8119Z" fill="#FB6061"/>
<path d="M82.4586 13.781C82.6951 12.5979 81.9281 11.4434 80.738 11.2447C74.704 10.2373 68.5623 10.0411 62.4763 10.6614C61.2759 10.7837 60.4368 11.8869 60.5973 13.0827V13.0827C60.7578 14.2786 61.8571 15.114 63.0577 14.9943C68.6648 14.4351 74.3212 14.6158 79.8812 15.5317C81.0717 15.7278 82.2221 14.9642 82.4586 13.781V13.781Z" fill="#FC8441"/>
<path d="M107.015 24.139C107.697 23.1439 107.445 21.781 106.429 21.1306C101.182 17.7731 95.5024 15.1455 89.5466 13.3203C88.393 12.9667 87.1913 13.6573 86.8746 14.8216V14.8216C86.558 15.9859 87.2464 17.1827 88.3993 17.5388C93.8831 19.2324 99.1155 21.6531 103.957 24.7362C104.974 25.3843 106.332 25.1341 107.015 24.139V24.139Z" fill="#FFD140"/>
<path d="M123.82 40.7604C124.808 40.0671 125.049 38.7023 124.325 37.7373C121.146 33.5029 117.488 29.6506 113.424 26.2571C112.498 25.4838 111.122 25.6542 110.379 26.6046V26.6046C109.635 27.5549 109.806 28.9251 110.73 29.7004C114.458 32.8263 117.818 36.3653 120.747 40.2494C121.473 41.2127 122.833 41.4537 123.82 40.7604V40.7604Z" fill="#0095FC"/>
<path d="M135.885 78.9423C137.092 78.9423 138.074 77.9638 138.035 76.7579C137.679 65.5531 134.582 54.6054 129.018 44.8736C128.419 43.8262 127.07 43.5068 126.042 44.1388V44.1388C125.014 44.7707 124.697 46.1145 125.293 47.1632C130.438 56.205 133.31 66.3613 133.663 76.758C133.705 77.9638 134.679 78.9423 135.885 78.9423V78.9423Z" fill="#3ADA98"/>
<path d="M1.19663 84.1184C1.19663 83.3863 1.31581 82.816 1.55417 82.4074C1.79252 81.9945 2.20965 81.7881 2.80555 81.7881C3.39719 81.7881 3.81219 81.9945 4.05055 82.4074C4.28891 82.816 4.40809 83.3863 4.40809 84.1184C4.40809 84.8633 4.28891 85.4422 4.05055 85.8551C3.81219 86.2679 3.39719 86.4744 2.80555 86.4744C2.20965 86.4744 1.79252 86.2679 1.55417 85.8551C1.31581 85.4422 1.19663 84.8633 1.19663 84.1184ZM3.83347 84.1184C3.83347 83.7481 3.80794 83.4353 3.75686 83.1799C3.71004 82.9203 3.61001 82.7117 3.45678 82.5542C3.30781 82.3967 3.09073 82.318 2.80555 82.318C2.51611 82.318 2.29478 82.3967 2.14155 82.5542C1.99258 82.7117 1.89255 82.9203 1.84147 83.1799C1.79465 83.4353 1.77124 83.7481 1.77124 84.1184C1.77124 84.5015 1.79465 84.8229 1.84147 85.0825C1.89255 85.3422 1.99258 85.5507 2.14155 85.7082C2.29478 85.8657 2.51611 85.9444 2.80555 85.9444C3.09073 85.9444 3.30781 85.8657 3.45678 85.7082C3.61001 85.5507 3.71004 85.3422 3.75686 85.0825C3.80794 84.8229 3.83347 84.5015 3.83347 84.1184Z" fill="black"/>
<path d="M72.5254 3.73301L70.2875 3.61443L70.2105 5.06808C70.3155 4.93725 70.4658 4.83439 70.6616 4.75952C70.8576 4.6804 71.0661 4.64669 71.2871 4.6584C71.6399 4.6771 71.9229 4.76668 72.136 4.92716C72.3494 5.08339 72.4966 5.28086 72.5778 5.51959C72.6634 5.7543 72.6993 6.00129 72.6856 6.26057C72.6693 6.5666 72.5974 6.83771 72.4698 7.07391C72.3422 7.3101 72.1557 7.49202 71.9102 7.61968C71.669 7.74755 71.3742 7.80226 71.0256 7.78379C70.5793 7.76014 70.2241 7.62623 69.96 7.38207C69.6959 7.1379 69.5442 6.82298 69.505 6.43728L70.0724 6.46735C70.1148 6.71255 70.2217 6.90789 70.393 7.05337C70.5643 7.19884 70.786 7.27878 71.058 7.2932C71.3938 7.31099 71.652 7.22451 71.8326 7.03375C72.0134 6.83873 72.1126 6.57546 72.1302 6.24393C72.1478 5.91239 72.0763 5.65286 71.9157 5.46533C71.7554 5.27355 71.5094 5.16888 71.1779 5.15131C70.9526 5.13937 70.7521 5.18416 70.5762 5.28566C70.4048 5.38314 70.2759 5.52336 70.1895 5.70632L69.6412 5.67727L69.779 3.076L72.5524 3.22296L72.5254 3.73301ZM73.4968 5.54272C73.5355 4.81164 73.6847 4.24839 73.9444 3.85296C74.2042 3.45328 74.6317 3.2692 75.2268 3.30073C75.8176 3.33204 76.2211 3.56015 76.4372 3.98505C76.6536 4.40571 76.7425 4.98158 76.7037 5.71265C76.6643 6.45648 76.5147 7.02824 76.2548 7.42792C75.9949 7.8276 75.5696 8.01178 74.9788 7.98048C74.3837 7.94894 73.9781 7.72073 73.7619 7.29582C73.5457 6.87091 73.4574 6.28655 73.4968 5.54272ZM76.1299 5.68225C76.1495 5.31246 76.1406 4.9987 76.1031 4.74097C76.0701 4.47921 75.9812 4.26565 75.8365 4.10027C75.6961 3.93513 75.4835 3.84501 75.1987 3.82991C74.9097 3.8146 74.6845 3.88152 74.5231 4.03068C74.366 4.18006 74.2551 4.38304 74.1904 4.63962C74.1301 4.89217 74.0902 5.20333 74.0706 5.57312C74.0503 5.95566 74.0567 6.27781 74.0897 6.53957C74.127 6.80155 74.2158 7.01511 74.3562 7.18026C74.5009 7.34564 74.7178 7.43598 75.0068 7.4513C75.2916 7.46639 75.5125 7.39924 75.6696 7.24986C75.831 7.1007 75.9419 6.89772 76.0024 6.64092C76.0671 6.38434 76.1097 6.06479 76.1299 5.68225Z" fill="black"/>
<path d="M100.155 10.4375C100.261 9.96763 100.09 9.63353 99.6427 9.43524C99.2963 9.28178 98.9781 9.30137 98.6879 9.49402C98.3994 9.68277 98.1217 10.0835 97.8549 10.6962C98.0341 10.5335 98.2518 10.4414 98.5081 10.4199C98.7699 10.3963 99.0293 10.4414 99.2861 10.5552C99.6869 10.7328 99.9509 10.9987 100.078 11.3529C100.209 11.7089 100.177 12.1068 99.982 12.5465C99.8648 12.8111 99.707 13.0252 99.5089 13.1888C99.3146 13.3541 99.0848 13.4525 98.8195 13.4839C98.558 13.5171 98.2794 13.4681 97.9837 13.3371C97.5829 13.1595 97.3092 12.9311 97.1629 12.6521C97.0165 12.3731 96.9683 12.0562 97.0185 11.7013C97.0687 11.3464 97.1963 10.9374 97.4015 10.4744C98.0343 9.04617 98.8489 8.55278 99.8451 8.99419C100.226 9.16317 100.48 9.39907 100.607 9.70188C100.733 10.0047 100.746 10.3223 100.646 10.6548L100.155 10.4375ZM98.9761 10.9555C98.8087 10.8814 98.6356 10.8466 98.4567 10.8511C98.2795 10.8517 98.1132 10.9014 97.9577 11.0001C97.8078 11.0967 97.6889 11.2442 97.601 11.4426C97.47 11.7384 97.4487 12.0176 97.5371 12.2803C97.6273 12.539 97.832 12.7391 98.1511 12.8805C98.4235 13.0012 98.6765 13.0132 98.9102 12.9166C99.1495 12.8178 99.333 12.6244 99.4606 12.3364C99.5951 12.0329 99.6224 11.761 99.5426 11.5208C99.4646 11.2767 99.2757 11.0883 98.9761 10.9555ZM101.037 12.0993C101.334 11.43 101.674 10.9568 102.057 10.6798C102.443 10.3989 102.908 10.3791 103.452 10.6205C103.993 10.8602 104.289 11.217 104.34 11.6911C104.392 12.1612 104.27 12.731 103.974 13.4003C103.672 14.0813 103.328 14.5623 102.943 14.8432C102.558 15.1241 102.095 15.1447 101.554 14.9051C101.009 14.6637 100.712 14.306 100.661 13.8319C100.61 13.3579 100.736 12.7804 101.037 12.0993ZM103.448 13.1675C103.598 12.829 103.702 12.5326 103.758 12.2784C103.821 12.0221 103.814 11.7909 103.738 11.5848C103.665 11.3805 103.499 11.2205 103.238 11.105C102.973 10.9878 102.739 10.9701 102.535 11.052C102.335 11.1356 102.159 11.2858 102.007 11.5025C101.861 11.717 101.713 11.9936 101.563 12.3321C101.408 12.6824 101.299 12.9857 101.236 13.242C101.178 13.5001 101.185 13.7313 101.257 13.9356C101.334 14.1417 101.504 14.3033 101.769 14.4206C102.029 14.5361 102.26 14.5521 102.46 14.4684C102.664 14.3865 102.84 14.2363 102.988 14.0179C103.14 13.8012 103.293 13.5178 103.448 13.1675Z" fill="black"/>
<path d="M123.925 26.344L119.658 27.8499L119.261 27.417L123.503 25.9688L121.837 24.1527L122.204 23.816L124.25 26.0463L123.925 26.344ZM123.029 28.0401C123.569 27.5453 124.07 27.2475 124.532 27.147C124.997 27.0436 125.431 27.2114 125.834 27.6506C126.234 28.0866 126.362 28.5319 126.219 28.9867C126.079 29.4385 125.74 29.9119 125.2 30.4068C124.651 30.9103 124.144 31.2137 123.679 31.3172C123.213 31.4206 122.781 31.2543 122.381 30.8183C121.978 30.3792 121.848 29.9322 121.991 29.4775C122.134 29.0227 122.48 28.5436 123.029 28.0401ZM124.812 29.9833C125.085 29.733 125.298 29.5027 125.451 29.2925C125.611 29.0824 125.697 28.8677 125.71 28.6484C125.725 28.4321 125.636 28.2189 125.444 28.0088C125.248 27.7955 125.04 27.6856 124.821 27.6791C124.604 27.6758 124.383 27.7431 124.157 27.8809C123.937 28.019 123.691 28.2133 123.418 28.4636C123.135 28.7225 122.914 28.957 122.755 29.167C122.598 29.3802 122.512 29.5948 122.496 29.8111C122.484 30.0305 122.575 30.2468 122.771 30.4601C122.964 30.6703 123.169 30.777 123.385 30.7803C123.605 30.7868 123.826 30.7195 124.049 30.5785C124.275 30.4407 124.529 30.2423 124.812 29.9833Z" fill="black"/>
<path d="M135.706 47.7349C135.706 47.4788 135.765 47.2585 135.884 47.074C136.003 46.8895 136.182 46.7503 136.419 46.6563C136.633 46.5717 136.846 46.5492 137.059 46.5887C137.275 46.6267 137.474 46.731 137.656 46.9016C137.844 47.0746 137.997 47.3115 138.116 47.6123C138.235 47.9131 138.284 48.1888 138.265 48.4392C138.25 48.6921 138.177 48.9064 138.045 49.0822C137.919 49.2604 137.749 49.3917 137.535 49.4763C137.305 49.5671 137.079 49.5856 136.857 49.5318C136.638 49.4765 136.445 49.3584 136.277 49.1775C136.299 49.4527 136.243 49.6991 136.109 49.9167C135.981 50.1368 135.785 50.2993 135.52 50.4042C135.262 50.506 135.012 50.5319 134.768 50.482C134.528 50.4305 134.308 50.3091 134.109 50.1179C133.915 49.9291 133.759 49.6842 133.64 49.3834C133.52 49.0826 133.467 48.7971 133.479 48.5268C133.497 48.259 133.575 48.0241 133.715 47.8223C133.859 47.6189 134.06 47.4663 134.317 47.3645C134.582 47.2596 134.838 47.2408 135.084 47.3081C135.331 47.3754 135.538 47.5177 135.706 47.7349ZM137.263 48.9797C137.504 48.8842 137.659 48.7314 137.727 48.5214C137.795 48.3114 137.774 48.0679 137.665 47.7908C137.557 47.5177 137.406 47.3279 137.213 47.2212C137.019 47.1146 136.8 47.1098 136.555 47.2069C136.333 47.2946 136.187 47.4462 136.117 47.6617C136.048 47.8812 136.065 48.1216 136.169 48.3828C136.274 48.648 136.425 48.8351 136.624 48.9441C136.828 49.0555 137.041 49.0674 137.263 48.9797ZM135.753 48.5472C135.637 48.2543 135.473 48.0423 135.261 47.9111C135.053 47.7783 134.812 47.7659 134.539 47.874C134.286 47.9742 134.117 48.1439 134.033 48.3831C133.951 48.6262 133.97 48.9002 134.091 49.2049C134.211 49.5097 134.384 49.7206 134.609 49.8376C134.834 49.9546 135.073 49.963 135.326 49.8628C135.591 49.7579 135.757 49.587 135.824 49.3501C135.894 49.1117 135.87 48.844 135.753 48.5472ZM136.837 50.713C137.517 50.4436 138.091 50.3446 138.559 50.4159C139.031 50.4856 139.376 50.7976 139.595 51.3517C139.813 51.9018 139.774 52.3637 139.478 52.7372C139.185 53.1092 138.699 53.4298 138.018 53.6992C137.325 53.9732 136.743 54.0754 136.272 54.0056C135.8 53.9359 135.455 53.626 135.238 53.0758C135.019 52.5217 135.057 52.0579 135.353 51.6843C135.649 51.3108 136.144 50.987 136.837 50.713ZM137.807 53.1649C138.151 53.0286 138.432 52.8898 138.651 52.7483C138.875 52.6093 139.032 52.4395 139.123 52.2391C139.214 52.0426 139.208 51.8118 139.103 51.5466C138.996 51.2775 138.841 51.1007 138.639 51.0161C138.437 50.9355 138.207 50.9193 137.946 50.9673C137.692 51.0177 137.392 51.111 137.048 51.2473C136.692 51.3882 136.401 51.5282 136.177 51.6673C135.955 51.8103 135.798 51.98 135.706 52.1765C135.616 52.3769 135.624 52.6117 135.731 52.8808C135.835 53.146 135.989 53.3189 136.19 53.3995C136.393 53.484 136.623 53.5003 136.882 53.4483C137.142 53.4003 137.45 53.3058 137.807 53.1649Z" fill="black"/>
<circle cx="133.121" cy="59.0993" r="3.45833" fill="white" stroke="#3ADA98" stroke-width="3.19231"/>
</g>
<defs>
<clipPath id="clip0_1066_66471">
<rect width="142.058" height="88.8526" fill="white" transform="translate(0.800781 0.730774)"/>
</clipPath>
</defs>
</svg>
